<svg version="1.0" xmlns="http://www.w3.org/2000/svg"
 width="200.000000pt" height="200.000000pt" viewBox="0 0 200.000000 200.000000"
 preserveAspectRatio="xMidYMid meet">
<metadata>
Created by potrace 1.10, written by Peter Selinger 2001-2011
</metadata>
<g transform="translate(0.000000,200.000000) scale(0.100000,-0.100000)"
fill="#4b6cc1" stroke="none">
<path d="M912 1176 c-104 -104 -131 -137 -126 -152 4 -10 63 -76 132 -146
l126 -128 23 22 24 22 -118 118 -118 118 120 120 c65 65 117 121 115 122 -3 2
-14 11 -26 20 -20 17 -23 15 -152 -116z m91 35 c-26 -33 -55 -63 -63 -66 -19
-8 -100 -102 -100 -116 0 -6 30 -41 68 -79 129 -131 146 -150 138 -157 -4 -4
-10 -3 -14 3 -4 5 -18 19 -32 29 -45 36 -190 193 -190 207 0 16 215 238 231
238 6 0 -11 -27 -38 -59z"/>
<path d="M1180 1175 l-25 -26 58 -56 c31 -30 57 -58 57 -61 0 -4 -25 -32 -55
-62 l-55 -56 23 -22 23 -22 54 55 c48 49 59 55 96 55 43 0 74 22 74 53 0 23
16 30 40 17 19 -10 19 -13 5 -33 -23 -33 -18 -53 20 -92 37 -36 122 -85 150
-85 29 0 14 17 -35 39 -28 13 -69 41 -92 63 l-41 39 25 26 c18 18 32 23 46 19
21 -7 21 -7 1 -27 -23 -23 -26 -24 -32 -1 -4 16 -4 16 -12 -1 -5 -12 -1 -25
11 -39 41 -45 144 -95 144 -69 0 6 -6 11 -13 11 -7 0 -35 14 -62 31 l-49 31
43 40 c29 27 49 38 62 35 23 -6 26 18 3 27 -24 9 -97 7 -113 -3 -10 -6 -23 -3
-41 11 -38 27 -61 20 -86 -27 -13 -25 -28 -41 -42 -43 -20 -3 -22 0 -16 22 5
23 -4 36 -68 102 l-73 75 -25 -26z m133 -135 c6 -22 4 -23 -58 -80 l-49 -45
42 47 c24 27 42 58 42 71 0 14 -17 40 -45 67 -25 24 -45 49 -45 54 0 15 108
-94 113 -114z m282 0 c-3 -5 -13 -10 -21 -10 -8 0 -14 5 -14 10 0 6 9 10 21
10 11 0 17 -4 14 -10z"/>
<path d="M1680 1041 c0 -5 16 -19 35 -31 43 -26 85 -76 85 -99 0 -26 -29 -48
-73 -56 -53 -10 -60 -28 -8 -23 l41 4 0 -78 c0 -63 3 -78 15 -78 12 0 15 16
15 82 0 62 4 86 17 100 21 24 21 69 -1 102 -31 49 -126 106 -126 77z"/>
<path d="M1772 910 c-9 -15 -23 -20 -52 -20 -22 0 -40 -4 -40 -10 0 -5 15 -10
34 -10 36 0 81 29 75 48 -3 8 -9 4 -17 -8z"/>
<path d="M530 781 c0 -61 3 -80 15 -85 13 -4 15 8 15 79 0 69 -3 85 -15 85
-12 0 -15 -15 -15 -79z"/>
<path d="M100 835 c0 -10 10 -15 30 -15 30 0 30 0 30 -59 0 -43 4 -60 15 -65
12 -4 15 6 15 59 l0 65 30 0 c20 0 30 5 30 15 0 12 -15 15 -75 15 -60 0 -75
-3 -75 -15z"/>
<path d="M1393 843 c-7 -3 -13 -13 -13 -24 0 -13 -6 -19 -17 -17 -11 2 -18 -3
-18 -12 0 -9 7 -14 18 -12 14 2 17 -5 17 -48 0 -38 4 -50 15 -50 11 0 15 12
15 51 0 49 1 51 25 47 19 -4 25 -1 25 12 0 13 -6 16 -24 13 -20 -4 -25 0 -28
19 -2 15 -8 23 -15 21z"/>
<path d="M1192 828 c-16 -16 -15 -53 1 -66 7 -6 35 -12 62 -14 36 -2 50 -7 50
-18 0 -12 -14 -15 -63 -15 -52 0 -62 -3 -62 -17 0 -15 9 -18 49 -18 63 0 97
13 106 40 11 36 -20 60 -77 60 -42 0 -49 3 -46 18 3 14 14 17 56 16 38 -1 52
2 52 12 0 18 -110 20 -128 2z"/>
<path d="M262 798 c-16 -16 -15 -73 1 -86 20 -16 77 -20 77 -5 0 8 -12 13 -31
13 -28 0 -30 2 -27 33 3 29 6 32 36 32 42 0 46 -19 5 -23 -49 -5 -40 -24 9
-20 46 3 61 25 38 53 -15 18 -91 20 -108 3z"/>
<path d="M404 796 c-3 -8 -4 -31 -2 -52 l3 -39 53 -5 c42 -5 52 -3 52 10 0 11
-11 15 -42 15 -41 0 -43 1 -43 30 0 29 1 30 43 27 33 -3 42 0 42 12 0 21 -98
23 -106 2z"/>
<path d="M572 798 c3 -7 18 -13 34 -13 27 -1 28 -3 26 -42 -3 -30 1 -42 13
-47 14 -5 16 2 13 52 l-3 57 -44 3 c-32 2 -42 0 -39 -10z"/>
<path d="M1495 801 c-14 -13 -1 -21 35 -21 39 0 40 -1 40 -36 0 -34 -1 -35
-35 -32 -45 4 -50 22 -7 26 46 5 40 22 -8 22 -51 0 -71 -29 -40 -60 26 -26 74
-26 100 0 22 22 27 72 8 88 -14 10 -86 21 -93 13z"/>
<path d="M1675 800 l-50 -5 -3 -48 c-3 -43 -1 -48 23 -57 15 -6 42 -10 61 -10
28 0 35 4 32 17 -3 14 -12 17 -46 15 l-42 -4 0 37 0 37 42 -3 c24 -2 43 1 45
8 6 17 -6 19 -62 13z"/>
<path d="M1825 780 l-29 -30 34 -35 c19 -19 43 -35 54 -35 17 0 15 5 -15 36
l-34 35 35 29 c35 29 35 29 9 30 -15 0 -36 -12 -54 -30z"/>
</g>
</svg>
