<svg version="1.0" xmlns="http://www.w3.org/2000/svg"
 width="100" height="100" viewBox="0 0 300.000000 324.000000"
 preserveAspectRatio="xMidYMid meet">
<g transform="translate(0.000000,324.000000) scale(0.100000,-0.100000)"
fill="white" stroke="none">
<path d="M1385 2700 c-33 -4 -80 -13 -105 -20 -25 -7 -49 -13 -55 -14 -48 -10
-207 -84 -272 -128 -72 -49 -173 -148 -210 -206 -19 -30 -82 -104 -141 -165
-58 -62 -76 -83 -39 -47 37 35 67 62 67 60 0 -3 -9 -30 -20 -60 -26 -68 -31
-84 -31 -87 0 -2 -6 -24 -14 -50 -29 -96 -39 -235 -25 -346 28 -227 108 -400
257 -558 158 -167 316 -251 552 -294 155 -28 323 -11 486 50 51 19 97 35 101
35 5 0 -23 -32 -61 -72 -39 -39 -14 -19 54 45 68 65 138 124 156 132 45 22
162 146 218 232 183 278 212 631 77 929 -106 234 -295 412 -540 507 -100 39
-128 46 -225 57 -99 11 -140 11 -230 0z m350 -49 c108 -28 264 -107 355 -180
145 -116 272 -311 322 -496 31 -116 31 -355 0 -470 -91 -330 -347 -586 -677
-677 -116 -31 -354 -31 -470 0 -330 91 -586 347 -677 677 -31 116 -31 354 0
470 97 354 376 615 738 690 98 20 305 13 409 -14z"/>
<path d="M1270 2286 c-229 -123 -252 -142 -209 -169 12 -8 63 15 222 102 114
61 210 111 214 111 3 0 101 -50 217 -111 215 -114 241 -122 241 -73 0 20 -9
25 -320 188 l-140 74 -225 -122z m220 74 c0 -5 -5 -10 -10 -10 -6 0 -45 -20
-88 -43 -149 -84 -312 -168 -312 -160 0 4 52 35 116 68 64 33 153 81 198 107
85 50 96 54 96 38z m119 -42 c53 -28 112 -60 131 -71 19 -11 66 -35 103 -54
38 -19 66 -37 64 -39 -5 -5 -385 192 -401 207 -23 21 13 6 103 -43z"/>
<path d="M1040 2010 c0 -11 5 -20 10 -20 6 0 10 -30 10 -70 0 -40 -4 -70 -10
-70 -5 0 -10 -9 -10 -20 0 -18 7 -20 79 -20 61 0 83 4 99 18 31 26 36 58 14
80 -16 16 -17 21 -6 38 18 26 8 59 -22 73 -14 6 -56 11 -94 11 -63 0 -70 -2
-70 -20z m65 -54 c0 -57 -10 -68 -14 -14 -1 23 -4 45 -7 50 -3 4 1 8 8 8 9 0
13 -14 13 -44z m60 9 c0 -11 -8 -21 -17 -23 -14 -3 -18 3 -18 23 0 20 4 26 18
23 9 -2 17 -12 17 -23z m32 -7 c-3 -7 -5 -2 -5 12 0 14 2 19 5 13 2 -7 2 -19
0 -25z m-10 -40 c-3 -8 -6 -5 -6 6 -1 11 2 17 5 13 3 -3 4 -12 1 -19z m-17
-23 c10 -12 10 -18 0 -30 -21 -25 -40 -18 -40 15 0 33 19 40 40 15z m36 -40
c-3 -8 -10 -15 -15 -15 -5 0 -4 11 2 25 12 25 23 16 13 -10z m-101 -5 c3 -5
-1 -10 -10 -10 -9 0 -13 5 -10 10 3 6 8 10 10 10 2 0 7 -4 10 -10z"/>
<path d="M1300 2010 c0 -11 4 -20 9 -20 5 0 -1 -31 -13 -70 -11 -38 -27 -70
-33 -70 -7 0 -13 -9 -13 -20 0 -17 7 -20 50 -20 43 0 50 3 50 20 0 11 -4 20
-10 20 -5 0 -10 6 -10 13 0 8 13 13 35 13 22 0 35 -5 35 -13 0 -7 -7 -13 -15
-13 -8 0 -15 -9 -15 -20 0 -18 7 -20 65 -20 58 0 65 2 65 20 0 11 -6 20 -12
20 -8 0 -24 38 -39 88 l-26 87 -62 3 c-56 3 -61 1 -61 -18z m54 -25 c-4 -8 -8
-15 -10 -15 -2 0 -4 7 -4 15 0 8 4 15 10 15 5 0 7 -7 4 -15z m50 -2 c3 -10 6
-21 6 -26 0 -4 6 -20 13 -35 24 -47 29 -82 12 -82 -8 0 -15 9 -15 19 0 11 -5
23 -10 26 -6 4 -8 14 -5 24 3 9 -4 33 -14 54 -14 28 -16 37 -6 37 8 0 16 -8
19 -17z m-26 -40 c10 -31 10 -33 -13 -33 -22 0 -23 2 -12 35 6 19 11 34 12 32
1 -1 7 -17 13 -34z"/>
<path d="M1539 1999 c-24 -26 -29 -40 -29 -81 0 -41 5 -54 29 -79 37 -37 104
-41 144 -9 24 19 25 22 10 39 -14 18 -17 18 -44 2 -42 -23 -64 -6 -64 49 0 55
28 78 52 43 9 -13 26 -23 39 -23 22 0 24 4 24 45 0 41 -2 45 -25 45 -14 0 -25
-5 -25 -12 0 -9 -3 -9 -12 0 -23 23 -68 14 -99 -19z m39 -16 c-26 -29 -32 -80
-14 -108 22 -33 20 -42 -3 -21 -36 32 -32 104 6 134 24 17 29 15 11 -5z m102
-3 c0 -5 -7 -7 -15 -4 -8 4 -15 8 -15 10 0 2 7 4 15 4 8 0 15 -4 15 -10z"/>
<path d="M1720 2010 c0 -11 5 -20 10 -20 6 0 10 -30 10 -70 0 -40 -4 -70 -10
-70 -5 0 -10 -9 -10 -20 0 -17 7 -20 50 -20 43 0 50 3 50 20 0 11 -4 20 -10
20 -14 0 -13 37 1 46 7 4 20 -4 30 -17 13 -17 14 -25 6 -29 -7 -3 -13 -13 -15
-22 -2 -16 6 -18 63 -18 58 0 65 2 65 20 0 11 -6 20 -12 20 -17 1 -70 89 -64
107 3 7 17 18 31 25 14 6 25 19 25 30 0 15 -8 18 -55 18 -48 0 -55 -3 -53 -17
2 -10 8 -20 14 -23 6 -3 -2 -15 -18 -28 l-28 -24 0 26 c0 14 5 26 10 26 6 0
10 9 10 20 0 17 -7 20 -50 20 -43 0 -50 -3 -50 -20z m58 -34 c-1 -13 4 -31 11
-40 11 -13 11 -20 3 -28 -7 -7 -12 -20 -12 -29 0 -9 -8 -23 -17 -30 -14 -12
-16 -12 -8 0 4 8 7 45 7 82 -1 42 2 69 9 69 6 0 9 -11 7 -24z m82 -47 c0 -6
11 -25 25 -43 28 -37 31 -46 12 -46 -7 0 -21 18 -31 40 -10 22 -22 40 -27 40
-5 0 -9 5 -9 10 0 6 7 10 15 10 8 0 15 -5 15 -11z"/>
<path d="M1320 1705 c0 -28 4 -35 20 -35 11 0 20 7 20 15 0 8 5 15 10 15 6 0
10 -25 10 -55 0 -30 -4 -55 -10 -55 -5 0 -10 -7 -10 -15 0 -11 12 -15 48 -15
37 0 49 4 49 15 0 8 -6 15 -14 15 -9 0 -13 16 -13 55 0 42 4 55 15 55 9 0 12
-6 9 -15 -4 -10 0 -15 15 -15 17 0 21 6 21 35 l0 35 -85 0 -85 0 0 -35z"/>
<path d="M1539 1727 c-44 -34 -51 -102 -15 -144 19 -22 32 -28 66 -28 74 0
112 73 75 144 -8 16 -22 31 -30 35 -27 10 -79 6 -96 -7z m72 -54 c12 -31 -1
-78 -22 -78 -18 0 -33 46 -25 79 8 34 34 34 47 -1z m-78 -18 c-3 -9 -8 -14
-10 -11 -3 3 -2 9 2 15 9 16 15 13 8 -4z m114 -37 c-3 -8 -6 -5 -6 6 -1 11 2
17 5 13 3 -3 4 -12 1 -19z"/>
<path d="M1042 1430 l2 -60 33 0 c30 0 33 3 33 30 0 23 4 30 20 30 19 0 20 -7
20 -101 0 -96 -1 -100 -20 -94 -17 5 -20 2 -20 -27 l0 -33 85 0 85 0 0 33 c0
29 -3 32 -20 27 -19 -6 -20 -2 -20 94 0 94 1 101 20 101 16 0 20 -7 20 -30 0
-27 3 -30 30 -30 30 0 30 0 30 60 l0 60 -150 0 -150 0 2 -60z m60 18 c-7 -7
-12 -20 -12 -30 0 -10 -4 -18 -10 -18 -5 0 -10 6 -10 14 0 26 12 46 28 46 12
0 13 -3 4 -12z m122 -15 c-18 -36 -19 -184 -2 -201 16 -16 -5 -32 -44 -32 -32
0 -36 11 -12 31 14 12 16 27 10 103 -4 62 -11 95 -23 108 -15 17 -14 18 35 18
l51 0 -15 -27z m75 18 c7 -5 12 -14 9 -21 -2 -7 -10 -4 -22 9 -19 21 -12 28
13 12z"/>
<path d="M1450 1483 c-53 -19 -90 -83 -90 -155 0 -108 58 -162 167 -156 70 4
105 27 129 85 31 73 6 178 -51 213 -31 19 -117 27 -155 13z m146 -38 c31 -20
44 -53 44 -115 0 -85 -28 -119 -112 -135 -44 -8 -107 21 -128 60 -22 41 -18
126 9 163 35 50 132 64 187 27z"/>
<path d="M1469 1424 c-32 -34 -34 -134 -4 -179 11 -17 19 -33 18 -37 -3 -10
60 15 77 31 17 16 29 107 18 146 -17 65 -67 83 -109 39z m57 -2 c33 -22 45
-107 22 -157 -14 -30 -53 -34 -68 -6 -16 30 -12 123 6 149 16 24 23 26 40 14z"/>
<path d="M1690 1461 c0 -18 5 -31 13 -31 9 0 11 -25 10 -97 -1 -62 -6 -97 -13
-96 -5 2 -10 -12 -10 -30 l0 -32 70 0 70 0 0 32 c0 25 -4 31 -15 27 -12 -5
-15 2 -15 29 0 33 1 35 45 39 79 9 122 55 106 114 -13 51 -49 66 -160 72
l-101 5 0 -32z m107 -19 c-18 -20 -22 -78 -7 -102 5 -9 5 -19 -2 -27 -6 -7 -8
-33 -6 -58 5 -42 4 -46 -19 -51 -28 -7 -48 13 -32 32 13 16 13 184 0 197 -20
20 -11 27 36 27 44 0 45 -1 30 -18z m116 -10 c25 -22 21 -57 -9 -81 -33 -26
-53 -28 -31 -3 21 23 22 65 2 82 -8 7 -15 16 -15 21 0 11 30 0 53 -19z m-49
-24 c15 -25 -3 -52 -38 -56 -24 -3 -26 -1 -26 38 0 39 2 41 26 38 15 -2 32
-11 38 -20z"/>
</g>
</svg>
